<svg xmlns="http://www.w3.org/2000/svg" viewBox="0 0 320 220" role="img" aria-labelledby="titleDesc">
  <title id="titleDesc">NaukriQ History of AI card</title>
  <defs>
    <linearGradient id="historyGradient" x1="0" y1="0" x2="1" y2="1">
      <stop offset="0%" stop-color="#f97316"/>
      <stop offset="100%" stop-color="#facc15"/>
    </linearGradient>
    <linearGradient id="bgGradient" x1="0" y1="0" x2="1" y2="1">
      <stop offset="0%" stop-color="#020617"/>
      <stop offset="100%" stop-color="#111827"/>
    </linearGradient>
  </defs>
  <rect width="320" height="220" rx="30" fill="url(#bgGradient)" />
  <rect x="24" y="24" width="272" height="172" rx="24" fill="#0f172a" opacity="0.94" />
  <circle cx="72" cy="82" r="34" fill="#0f172a" stroke="#f97316" stroke-width="4" />
  <path d="M60 78h24v8H60z" fill="#facc15" />
  <path d="M64 92h16v8H64z" fill="#eab308" />
  <rect x="146" y="52" width="140" height="28" rx="14" fill="#111827" />
  <rect x="152" y="58" width="104" height="12" rx="6" fill="#fbbf24" />
  <rect x="152" y="76" width="72" height="12" rx="6" fill="#fbbf24" />
  <path d="M38 148h244" stroke="#f97316" stroke-width="4" stroke-linecap="round" />
  <circle cx="88" cy="148" r="10" fill="#f97316" />
  <circle cx="146" cy="148" r="10" fill="#fbbf24" />
  <circle cx="204" cy="148" r="10" fill="#f97316" />
  <circle cx="262" cy="148" r="10" fill="#fbbf24" />
  <text x="50%" y="38" fill="#f8fafc" font-size="20" font-weight="700" text-anchor="middle" font-family="Inter, sans-serif">History of AI</text>
  <text x="50%" y="201" fill="#cbd5e1" font-size="14" text-anchor="middle" font-family="Inter, sans-serif">From perceptrons to modern chatbots</text>
</svg>
